<svg width="46" height="31" viewBox="0 0 46 31" fill="none" xmlns="http://www.w3.org/2000/svg">
<path d="M6.11446 21.7403C4.92554 21.7403 3.864 21.4997 2.92985 21.0185C1.99569 20.5089 1.27385 19.8295 0.764308 18.9803C0.254769 18.1028 0 17.1262 0 16.0505C0 14.4369 0.566154 13.064 1.69846 11.9317C2.83077 10.7711 4.37354 10.0068 6.32677 9.63877C8.30831 9.24246 10.5305 9.28492 12.9932 9.76615L13.2055 10.9551C11.4222 10.5588 9.85108 10.488 8.49231 10.7428C7.16185 10.9975 6.11446 11.5354 5.35015 12.3563C4.61415 13.1772 4.24615 14.2105 4.24615 15.456C4.24615 16.5883 4.55754 17.5791 5.18031 18.4283C5.83138 19.2492 6.77969 19.6597 8.02523 19.6597C9.12923 19.6597 10.0917 19.3058 10.9126 18.5982C11.7618 17.8622 12.4412 16.928 12.9508 15.7957L13.5877 15.7108C13.4178 16.56 13.0215 17.4517 12.3988 18.3858C11.776 19.32 10.9268 20.1126 9.85108 20.7637C8.77538 21.4148 7.52985 21.7403 6.11446 21.7403ZM0.467077 5.94461C0.863385 4.86892 1.472 3.87815 2.29292 2.97231C3.11385 2.06646 4.09046 1.35877 5.22277 0.849231C6.35508 0.311385 7.60062 0.0424604 8.95938 0.0424604C10.3465 0.0141538 11.6062 0.268923 12.7385 0.806769C13.8991 1.34462 14.8049 2.12308 15.456 3.14215C16.1354 4.13292 16.4751 5.29354 16.4751 6.624V17.6215C16.4751 18.1877 16.5317 18.6406 16.6449 18.9803C16.7582 19.32 16.9705 19.4898 17.2818 19.4898C17.5366 19.4898 17.7772 19.4332 18.0037 19.32L18.2585 19.5748C17.9471 20.1975 17.5083 20.7212 16.9422 21.1458C16.4043 21.5422 15.7532 21.7403 14.9889 21.7403C14.1114 21.7403 13.4037 21.4572 12.8658 20.8911C12.3563 20.2966 12.1015 19.5748 12.1015 18.7255V6.96369C12.1015 5.46338 11.6628 4.34523 10.7852 3.60923C9.90769 2.84492 8.80369 2.46277 7.47323 2.46277C6.34092 2.46277 5.19446 2.76 4.03385 3.35446C2.90154 3.94892 1.91077 4.86892 1.06154 6.11446L0.467077 5.94461ZM16.7165 30.3175V29.7231C17.8205 29.5815 18.6557 29.2702 19.2219 28.7889C19.8163 28.3077 20.1136 27.4018 20.1136 26.0714V4.50092C20.1136 3.17046 19.8163 2.26462 19.2219 1.78338C18.6557 1.30215 17.8205 0.990769 16.7165 0.849231V0.254769H20.1136H24.5296V26.0714C24.5296 27.4018 24.8126 28.3077 25.3788 28.7889C25.9449 29.2702 26.78 29.5815 27.884 29.7231V30.3175H24.5296H20.1136H16.7165ZM29.6249 21.6978C26.6809 21.6978 24.0342 20.2966 21.6846 17.4942L24.5296 14.0548C24.5579 16.008 24.9542 17.5508 25.7185 18.6831C26.4828 19.8154 27.5726 20.3815 28.988 20.3815C30.5166 20.3815 31.7197 19.6455 32.5973 18.1735C33.5031 16.6732 33.956 14.5926 33.956 11.9317C33.956 8.98769 33.5173 6.63815 32.6397 4.88308C31.7905 3.128 30.5025 2.25046 28.7757 2.25046C27.8133 2.25046 26.9216 2.54769 26.1006 3.14215C25.2797 3.70831 24.5862 4.48677 24.02 5.47754L23.7228 4.54338C24.4871 3.15631 25.4779 2.05231 26.6951 1.23138C27.9406 0.410461 29.3136 0 30.8139 0C32.3142 0 33.6588 0.410461 34.8477 1.23138C36.0366 2.024 36.9708 3.22708 37.6502 4.84062C38.3579 6.42585 38.7117 8.35077 38.7117 10.6154C38.7117 12.9649 38.3013 14.9748 37.4803 16.6449C36.6877 18.3151 35.5979 19.5748 34.2108 20.424C32.8237 21.2732 31.2951 21.6978 29.6249 21.6978ZM42.2353 21.7403C41.4144 21.7403 40.7067 21.4572 40.1122 20.8911C39.5178 20.2966 39.2205 19.5748 39.2205 18.7255C39.2205 17.9046 39.5178 17.2111 40.1122 16.6449C40.7067 16.0505 41.4144 15.7532 42.2353 15.7532C43.0562 15.7532 43.7639 16.0505 44.3584 16.6449C44.9529 17.2111 45.2501 17.9046 45.2501 18.7255C45.2501 19.5748 44.9529 20.2966 44.3584 20.8911C43.7639 21.4572 43.0562 21.7403 42.2353 21.7403Z" fill="black"/>
</svg>
